<svg xmlns="http://www.w3.org/2000/svg" xml:space="preserve" aria-hidden="true" viewBox="0 0 512 512"><path fill="currentColor" d="M290.671 135.434c37.324-3.263 64.949-36.175 61.663-73.498-3.241-37.324-36.152-64.938-73.476-61.675s-64.949 36.164-61.686 73.488c3.265 37.347 36.176 64.949 73.499 61.685m20.639 270.92c-16.134 5.906-43.322 22.546-43.322 22.546s20.615-95.297 21.466-99.446c8.71-41.829 33.463-100.86-.069-136.747-23.35-24.936-53.366-18.225-79.819 7.079-17.467 16.696-26.729 27.372-42.908 45.322-6.55 7.273-9.032 14.065-5.93 24.717 3.332 11.515 16.8 17.226 28.705 12.871 16.134-5.895 43.3-22.534 43.3-22.534s-12.595 57.997-18.869 87c-.874 4.137-36.06 113.292-2.505 149.18 23.35 24.949 53.343 18.226 79.819-7.066 17.467-16.698 26.729-27.373 42.908-45.334 6.55-7.263 9.009-14.054 5.93-24.706-3.356-11.503-16.801-17.226-28.706-12.882"/></svg>