<svg xmlns="http://www.w3.org/2000/svg" fill="none" class="svg-rain" viewBox="0 0 16 16"><path fill="currentColor" d="M2.293 13.707A1 1 0 0 1 2 13c0-.5.555-1.395 1-2 .445.605 1 1.5 1 2a1 1 0 0 1-1.707.707m10 0A1 1 0 0 1 12 13c0-.5.555-1.395 1-2 .445.605 1 1.5 1 2a1 1 0 0 1-1.707.707M7 15a1 1 0 1 0 2 0c0-.5-.555-1.395-1-2-.445.605-1 1.5-1 2m4.727-6.783A4.99 4.99 0 0 1 7.9 10a5 5 0 0 1-3.773-1.719 3 3 0 1 1-.586-5.732A5 5 0 0 1 7.9 0a5 5 0 0 1 4.38 2.587q.347-.086.72-.087a3 3 0 1 1-1.273 5.717"/></svg>