<svg xmlns="http://www.w3.org/2000/svg" fill="none" viewBox="0 0 24 24"><g fill="currentColor"><path d="M21.95 9.037q.05.47.05.963c0 1.629-.276 3.086-1.224 4.545-.923 1.42-2.431 2.76-4.721 4.287-2.977 1.984-7.29 3.391-9.757 4.096-.811.232-1.457-.244-1.736-.74-.274-.488-.341-1.243.182-1.827.7-.781 1.468-1.788 1.982-2.874-1.326-.703-2.433-1.55-3.244-2.632C2.488 13.528 2 11.93 2 10c0-5.734 5.149-9 10-9 1.14 0 2.297.18 3.4.53a5 5 0 0 0-1.098 1.756A9.4 9.4 0 0 0 12 3c-4.149 0-8 2.734-8 7 0 1.57.388 2.729 1.083 3.655.707.945 1.794 1.731 3.333 2.436l.817.373-.284.852c-.408 1.222-1.099 2.345-1.797 3.268 2.413-.758 5.565-1.93 7.793-3.416 2.21-1.473 3.452-2.633 4.154-3.713.677-1.041.901-2.084.901-3.455v-.1a5 5 0 0 0 1.95-.863"/><path d="M23 5a4 4 0 1 1-8 0 4 4 0 0 1 8 0m-6.017 0a2.018 2.018 0 1 0 4.035 0 2.018 2.018 0 0 0-4.035 0"/></g></svg>